<?xml version="1.0" encoding="UTF-8" standalone="no"?>
<!-- Created with Inkscape (http://www.inkscape.org/) -->

<svg
   width="126.99999mm"
   height="127mm"
   viewBox="0 0 126.99999 127"
   version="1.1"
   id="svg1"
   xml:space="preserve"
   xmlns="http://www.w3.org/2000/svg"
   xmlns:svg="http://www.w3.org/2000/svg"><defs
     id="defs1"><clipPath
       clipPathUnits="userSpaceOnUse"
       id="clipPath5"><circle
         style="fill:#808080;stroke-width:7.99935"
         id="circle5"
         cx="320"
         cy="240"
         r="240" /></clipPath></defs><g
     id="layer1"
     transform="translate(-44.295461,-14.975668)"><g
       id="g4"
       clip-path="url(#clipPath5)"
       transform="matrix(0.26458333,0,0,0.26458333,23.128791,14.975669)"
       style="stroke-width:1pt"><path
         fill="#229e45"
         fill-rule="evenodd"
         d="M 0,0 H 640 V 480 H 0 Z"
         id="path1" /><path
         fill="#f8e509"
         fill-rule="evenodd"
         d="M 321.4,436 622.9,240.3 319.6,44 17.1,240.7 Z"
         id="path2" /><path
         fill="#2b49a3"
         fill-rule="evenodd"
         d="m 452.8,240 c 0,70.3 -57.1,127.3 -127.6,127.3 A 127.4,127.4 0 1 1 452.8,240"
         id="path3" /><path
         fill="#ffffff"
         fill-rule="evenodd"
         d="M 444.4,285.8 A 124.6,124.6 0 0 0 450.2,266 C 382.4,206.5 306.9,176 211.5,182.3 a 124.5,124.5 0 0 0 -8.5,20.9 c 113,-10.8 196,39.2 241.4,82.6"
         id="path7" /></g></g></svg>
